<svg xmlns="http://www.w3.org/2000/svg" viewBox="0 0 400 100" fill="none" role="img" aria-label="Sloan AI">
  <path d="M74 18 C76 40, 80 44, 102 46 C80 48, 76 52, 74 74 C72 52, 68 48, 46 46 C68 44, 72 40, 74 18 Z" fill="#1c1c1e"/>
  <path d="M38 8 C39.3 22, 41.5 24.2, 55 25.5 C41.5 26.8, 39.3 29, 38 43 C36.7 29, 34.5 26.8, 21 25.5 C34.5 24.2, 36.7 22, 38 8 Z" fill="#1c1c1e"/>
  <path d="M32 60 C32.8 68, 34 69.2, 42 70 C34 70.8, 32.8 72, 32 80 C31.2 72, 30 70.8, 22 70 C30 69.2, 31.2 68, 32 60 Z" fill="#1c1c1e"/>
  <text x="112" y="63" font-family="-apple-system, BlinkMacSystemFont, 'SF Pro Display', 'Segoe UI', system-ui, sans-serif" font-size="52" font-weight="600" letter-spacing="-1.5" fill="#1c1c1e">Sloan<tspan font-weight="800" dx="6">AI</tspan></text>
  <text x="392" y="30" font-family="-apple-system, BlinkMacSystemFont, 'Segoe UI', system-ui, sans-serif" font-size="14" font-weight="600" fill="#1c1c1e">™</text>
</svg>
